<?xml version="1.0" encoding="utf-8"?>
<!-- Generator: Adobe Illustrator 26.0.1, SVG Export Plug-In . SVG Version: 6.00 Build 0)  -->
<svg version="1.1" id="图层_1" xmlns="http://www.w3.org/2000/svg" xmlns:xlink="http://www.w3.org/1999/xlink" x="0px" y="0px"
	 viewBox="0 0 1024 1024" style="enable-background:new 0 0 1024 1024;" xml:space="preserve">
<style type="text/css">
	.st0{fill-rule:evenodd;clip-rule:evenodd;fill:url(#SVGID_1_);}
	.st1{fill-rule:evenodd;clip-rule:evenodd;fill:url(#SVGID_00000175299319771065726270000002906924081883986872_);}
</style>
<linearGradient id="SVGID_1_" gradientUnits="userSpaceOnUse" x1="502.15" y1="-9.094947e-13" x2="502.15" y2="809" gradientTransform="matrix(1 0 0 -1 0 1024)">
	<stop  offset="0" style="stop-color:#DFE9F3"/>
	<stop  offset="1" style="stop-color:#FFFFFF"/>
</linearGradient>
<polygon class="st0" points="679.3,1024 273,1024 122.2,741.2 184.7,445.3 233.8,215.7 788.8,215 882.1,474.4 "/>
<linearGradient id="SVGID_00000021803386573657719400000001027709654391685516_" gradientUnits="userSpaceOnUse" x1="512" y1="1024" x2="512" y2="-9.094947e-13">
	<stop  offset="7.565461e-07" style="stop-color:#29323C"/>
	<stop  offset="1" style="stop-color:#485563"/>
</linearGradient>
<path style="fill-rule:evenodd;clip-rule:evenodd;fill:url(#SVGID_00000021803386573657719400000001027709654391685516_);" d="
	M0,250.1V774c0,138,112,250,250.1,250h93.6c21.2,0,38.3-17.2,38.1-38.4c-0.2-26-0.4-59.6-0.4-85.3c-131.9,24.3-166-32.2-176.5-61.7
	c-5.9-15.1-31.5-61.7-53.8-74.1c-18.4-9.8-44.6-34.1-0.7-34.8c41.3-0.7,70.9,38.1,80.7,53.8c47.2,79.4,122.7,57.1,152.9,43.3
	c4.6-34.1,18.4-57.1,33.5-70.2c-116.8-13.1-238.9-58.4-238.9-259.2c0-57.1,20.3-104.3,53.8-141.1c-5.2-13.1-23.6-66.9,5.2-139.1
	c0,0,44-13.8,144.4,53.8c42-11.8,86.6-17.7,131.2-17.7s89.2,5.9,131.2,17.7c100.4-68.2,144.4-53.8,144.4-53.8
	c28.9,72.2,10.5,126,5.2,139.1c33.5,36.7,53.8,83.3,53.8,141.1c0,201.4-122.7,246.1-239.5,259.2c19,16.4,35.4,47.9,35.4,97.1
	c0,46-0.3,97.1-0.5,132c-0.1,21.1,17,38.3,38.1,38.3h92.4C912,1024,1024,912,1024,773.9V250.1C1024,112,912,0,773.9,0H250.1
	C112,0,0,112,0,250.1z"/>
</svg>
